<?xml version="1.0" standalone="no"?>
<!DOCTYPE svg PUBLIC "-//W3C//DTD SVG 20010904//EN"
 "http://www.w3.org/TR/2001/REC-SVG-20010904/DTD/svg10.dtd">
<svg version="1.0" xmlns="http://www.w3.org/2000/svg"
 width="512.000000pt" height="512.000000pt" viewBox="0 0 512.000000 512.000000"
 preserveAspectRatio="xMidYMid meet">
<metadata>
Created by potrace 1.14, written by Peter Selinger 2001-2017
</metadata>
<g transform="translate(0.000000,512.000000) scale(0.100000,-0.100000)"
fill="#000000" stroke="none">
<path d="M3722 4535 c-107 -25 -172 -99 -172 -199 0 -110 50 -147 280 -210 30
-8 63 -21 74 -29 25 -18 24 -64 -3 -90 -18 -19 -33 -22 -94 -21 -70 1 -122 19
-190 67 -15 10 -22 6 -57 -33 l-39 -45 34 -31 c72 -64 225 -98 335 -75 107 23
173 96 176 196 4 109 -50 153 -253 205 -115 30 -148 67 -105 120 37 46 124 42
219 -9 l52 -28 35 50 36 51 -43 28 c-23 15 -56 33 -73 38 -58 20 -159 26 -212
15z"/>
<path d="M2565 4289 l0 -241 -33 -29 c-49 -44 -111 -38 -158 17 l-20 25 -48
-47 -48 -46 22 -23 c11 -12 44 -35 73 -51 44 -25 63 -29 127 -29 83 0 116 13
168 66 54 56 61 92 62 359 l1 240 -73 0 -73 0 0 -241z"/>
<path d="M2835 4323 c1 -115 5 -224 10 -243 36 -161 209 -254 384 -204 51 14
74 27 115 68 86 86 94 131 87 534 l-1 52 -70 0 -70 0 0 -205 c0 -227 -5 -252
-59 -298 -62 -52 -147 -48 -204 9 -46 46 -50 74 -50 312 l0 182 -71 0 -72 0 1
-207z"/>
<path d="M4134 4470 c0 -33 4 -61 8 -61 4 -1 50 -2 101 -3 l92 -2 3 -267 2
-267 70 0 c49 0 70 4 71 13 1 6 2 127 3 267 l1 255 100 0 100 0 3 63 3 62
-278 0 -279 0 0 -60z"/>
<path d="M3538 3305 c-2 -2 -32 -6 -68 -9 -314 -33 -598 -212 -720 -456 -55
-111 -71 -178 -77 -332 -15 -357 156 -569 577 -715 103 -36 391 -113 479 -128
19 -3 38 -8 42 -11 4 -2 41 -13 82 -23 86 -23 196 -71 244 -107 50 -38 76 -96
76 -174 1 -179 -167 -294 -428 -292 -193 1 -345 35 -522 117 -82 38 -225 128
-295 187 -40 33 -50 37 -60 26 -7 -7 -45 -51 -83 -98 -38 -47 -74 -90 -80 -96
-35 -37 -144 -170 -145 -177 -1 -5 22 -29 52 -54 77 -64 75 -63 167 -122 222
-142 493 -232 771 -257 131 -12 347 -6 423 11 12 3 33 7 47 9 364 62 630 290
706 606 19 80 25 246 11 337 -26 187 -148 345 -347 455 -113 62 -385 155 -530
182 -43 7 -272 66 -337 86 -139 43 -228 100 -261 169 -23 49 -23 164 1 209 91
169 344 223 645 136 140 -40 301 -121 429 -216 24 -17 45 -30 47 -27 17 19
278 383 282 394 5 13 -106 104 -181 147 -142 83 -270 136 -415 172 -106 26
-122 29 -219 41 -51 7 -308 14 -313 10z"/>
<path d="M1643 2388 c0 -480 -4 -899 -7 -932 -29 -244 -236 -400 -470 -357
-127 24 -274 123 -342 233 -15 24 -28 44 -29 46 -5 5 -375 -361 -375 -370 0
-17 176 -186 236 -226 342 -229 770 -269 1092 -101 236 123 376 314 449 614 4
17 9 465 10 998 l4 967 -284 0 -284 0 0 -872z"/>
</g>
</svg>
